<?xml version="1.0" standalone="no"?><!DOCTYPE svg PUBLIC "-//W3C//DTD SVG 1.1//EN" "http://www.w3.org/Graphics/SVG/1.1/DTD/svg11.dtd"><svg t="1755608028577" class="icon" viewBox="0 0 1024 1024" version="1.1" xmlns="http://www.w3.org/2000/svg" p-id="7443" xmlns:xlink="http://www.w3.org/1999/xlink" width="200" height="200"><path d="M903.529412 0H120.470588A120.470588 120.470588 0 0 0 0 120.470588v783.058824a120.470588 120.470588 0 0 0 120.470588 120.470588h783.058824a120.470588 120.470588 0 0 0 120.470588-120.470588V120.470588a120.470588 120.470588 0 0 0-120.470588-120.470588z m42.164706 894.674824A51.019294 51.019294 0 0 1 894.674824 945.694118H129.325176A51.019294 51.019294 0 0 1 78.305882 894.674824V129.325176A51.019294 51.019294 0 0 1 129.325176 78.305882h765.349648A51.019294 51.019294 0 0 1 945.694118 129.325176z" p-id="7444"></path><path d="M166.113882 315.919059H194.258824v-112.745412h103.619764l0.481883-45.477647h46.125176l-0.481882 45.477647h103.28847v112.745412h30.750118V356.894118h-120.079059q39.077647 51.576471 122.352941 70.460235-1.596235 2.243765-36.517647 44.528941-83.591529-28.988235-122.518588-101.059765-26.428235 61.500235-124.114824 102.4-18.898824-22.106353-36.141176-40.357647 98.966588-29.786353 120.274824-75.911529h-115.184942z m72.387765 0h54.934588q3.011765-29.786353 3.689412-71.740235h-58.639059z m164.623059-71.740235H343.341176q-0.963765 41.005176-2.409411 71.740235h62.192941zM638.840471 370.688v-22.422588l-20.178824 23.386353q-12.815059-13.447529-23.055059-23.702589v125.876706h-40.357647V364.423529q-12.047059 13.447529-25.6 27.105883-5.767529-24.982588-12.815059-48.052706 40.041412-41.321412 57.976471-77.507765h-54.482824v-41.33647h52.525177q-13.552941-20.495059-34.906353-46.757647l34.635294-22.106353q16.971294 18.582588 38.113882 46.441411l-33.626353 22.422589h45.477648v36.833882a268.694588 268.694588 0 0 1-21.458824 42.435765q20.495059 16.338824 37.797647 31.86447V169.863529h175.149177v198.264471h-43.565177V211.184941h-88.079059v159.503059z m154.066823 8.643765q26.262588 11.851294 42.285177 17.935059-7.213176 53.323294-18.070589 62.057411a39.890824 39.890824 0 0 1-25.871058 8.734118h-31.337412q-38.430118 0-38.430118-34.906353v-38.113882q-24.515765 49.001412-84.495059 79.435294-12.167529-16.022588-30.750117-36.517647 57.494588-24.816941 77.748706-62.930824t19.57647-143.977412h44.513882q-1.129412 69.511529-10.405647 114.341647h23.868236v73.035295q0 12.498824 10.887529 12.483764h4.803765a10.420706 10.420706 0 0 0 10.405647-6.640941q2.861176-6.656 5.255529-44.935529zM326.896941 581.888h-43.881412q8.809412 4.005647 34.273883 15.058824-5.285647 8.161882-16.338824 24.666352h32.993883v35.855059h-62.147765v20.826353h56.365176v35.870118h-56.365176v77.191529q0 14.893176-6.324706 23.536941a27.949176 27.949176 0 0 1-17.618824 10.977883q-11.294118 2.319059-41.712941 2.319059a175.209412 175.209412 0 0 0-6.4-36.096l-6.731294 14.245647q-12.498824-7.68-34.273882-16.00753 16.007529-30.117647 27.858823-70.460235l35.870118 10.887529a486.234353 486.234353 0 0 1-20.495059 56.048942q7.845647 0.647529 15.691294 0.647529 12.167529 0 12.483765-14.411294v-58.88h-60.235294v-35.870118h60.235294V657.468235h-65.325176v-35.870117h34.42447q-6.731294-13.131294-13.929412-24.982589l34.906353-14.095058q12.815059 21.293176 21.458824 39.077647h14.095059q15.856941-26.744471 21.775058-39.710118h-106.917647v-35.870118h57.012706q-4.321882-11.685647-8.327529-21.082353l44.212706-8.071529q4.638118 12.498824 9.607529 29.153882h53.805177z m153.73553 81.679059H456.282353v166.550588h-42.270118V663.552h-28.190117v18.251294q0 101.376-43.881412 154.699294-21.775059-18.898824-40.357647-32.030117a111.058824 111.058824 0 0 0 28.506353-40.192l-32.677647 18.416941a448.090353 448.090353 0 0 0-24.350118-47.405177l30.750118-15.375059q11.369412 15.375059 26.428235 44.047059 13.296941-31.232 13.296941-75.745882v-144.128q73.035294-7.363765 118.829177-23.386353l18.251294 41.953882a575.698824 575.698824 0 0 1-94.870588 16.338824v42.601412h94.870588zM529.618824 559.149176h42.917647v272.880942h-42.917647z m39.710117-28.190117l38.430118-14.095059q14.411294 23.055059 30.750117 51.892706l-40.990117 16.338823q-14.411294-30.433882-28.190118-54.13647z m12.16753 251.105882L578.258824 746.194824l24.666352-0.963765v-120.470588h-18.221176v-35.237647H764.988235v35.237647h-21.082353v113.423058l28.506353-1.927529q-1.596235 18.898824-2.243764 34.635294l-26.262589 1.505882V790.588235q15.375059 0 21.38353-1.114353a16.158118 16.158118 0 0 0 10.089412-6.490353q4.080941-5.360941 4.080941-14.652235V571.632941h-128.13553v-39.393882H822.362353V770.861176q0 27.542588-9.125647 41.396706t-26.578824 17.136942q-17.453176 3.282824-54.603294 3.282823-2.56-13.929412-5.601882-25.946353h-20.992v-32.346353z m59.888941-137.728h64.060235v-19.57647h-64.045176z m0 48.368941h64.060235v-19.57647h-64.045176z m64.060235 47.555765v-18.733176h-64.045176v22.106353z" p-id="7445"></path></svg>