<?xml version="1.0" standalone="no"?><!DOCTYPE svg PUBLIC "-//W3C//DTD SVG 1.1//EN" "http://www.w3.org/Graphics/SVG/1.1/DTD/svg11.dtd"><svg t="1755608006669" class="icon" viewBox="0 0 1024 1024" version="1.1" xmlns="http://www.w3.org/2000/svg" p-id="7295" xmlns:xlink="http://www.w3.org/1999/xlink" width="200" height="200"><path d="M874.25 437.75h-49.5c-4.5 0-6.75 2.25-9 6.75-2.25 2.25-2.25 6.75-4.5 9-15.75 40.5-31.5 78.75-47.25 119.25 0-2.25-2.25-2.25-2.25-2.25-15.75-40.5-31.5-81-47.25-123.75-2.25-6.75-6.75-11.25-15.75-11.25h-218.25c-4.5 0-6.75 0-6.75 6.75v36c0 9 2.25 11.25 11.25 11.25h51.75c6.75 0 9 2.25 9 9v132.75c0 6.75 2.25 9 9 9h38.25c11.25 0 13.5-2.25 13.5-13.5v-128.25c0-6.75 2.25-9 9-6.75h42.75c13.5 0 13.5 0 18 13.5 18 42.75 33.75 85.5 51.75 130.5 2.25 4.5 4.5 6.75 9 6.75h56.25c4.5 0 9-2.25 11.25-6.75 24.75-63 49.5-123.75 74.25-186.75 2.25-9 2.25-11.25-4.5-11.25zM255.5 579.5c-2.25-4.5-4.5-4.5-9-4.5-24.75 9-51.75 13.5-78.75 4.5-27-9-40.5-38.25-29.25-63 6.75-15.75 20.25-22.5 36-27 18-2.25 33.75 0 45 0h36c6.75 0 9-2.25 9-9v-38.25c0-4.5-2.25-6.75-6.75-6.75h-67.5c-27 0-49.5 6.75-72 20.25-58.5 36-65.25 110.25-9 153 49.5 38.25 103.5 36 157.5 15.75 4.5-2.25 4.5-2.25 2.25-6.75-2.25-13.5-9-24.75-13.5-38.25z" p-id="7296"></path><path d="M449 577.25c-2.25-2.25-2.25-4.5-6.75-2.25-13.5 4.5-27 9-40.5 9-20.25 2.25-38.25 0-56.25-13.5-22.5-18-24.75-49.5-2.25-67.5 13.5-11.25 27-13.5 45-13.5h58.5c6.75 0 11.25-2.25 11.25-9V444.5c0-4.5-2.25-6.75-6.75-6.75h-63c-24.75 0-47.25 4.5-69.75 15.75-58.5 31.5-74.25 101.25-22.5 150.75 24.75 22.5 54 33.75 85.5 36 27 2.25 51.75-2.25 76.5-13.5 2.25 0 6.75-2.25 4.5-6.75-2.25-15.75-6.75-29.25-13.5-42.75z" p-id="7297"></path><path d="M950.75 563.75c0-2.25 0-4.5-4.5-4.5h-63c-4.5 0-4.5 2.25-4.5 4.5v67.5c0 4.5 0 6.75 4.5 6.75h63c2.25 0 4.5 0 4.5-4.5v-69.75z" p-id="7298"></path></svg>