<?xml version="1.0" standalone="no"?><!DOCTYPE svg PUBLIC "-//W3C//DTD SVG 1.1//EN" "http://www.w3.org/Graphics/SVG/1.1/DTD/svg11.dtd"><svg t="1755534194734" class="icon" viewBox="0 0 1024 1024" version="1.1" xmlns="http://www.w3.org/2000/svg" p-id="11481" xmlns:xlink="http://www.w3.org/1999/xlink" width="200" height="200"><path d="M501.76 112.64c43.008 1.536 82.944 2.048 122.88 5.12 53.248 4.096 105.984 11.776 156.672 28.672 25.6 8.704 50.688 19.968 73.728 34.816 31.744 20.48 57.344 46.592 75.776 79.36 11.264 19.968 19.456 41.472 25.6 64 16.384 59.904 16.384 120.832 11.776 181.76-2.56 36.864-7.68 73.728-13.824 110.08-7.68 43.52-19.456 86.016-38.912 125.952-13.824 28.16-31.232 54.272-54.272 76.288-26.624 25.6-57.344 44.032-92.16 57.344-49.152 18.432-99.84 27.136-151.552 31.232-72.192 5.632-144.384 5.632-216.576-0.512-32.768-2.56-65.536-7.68-97.792-15.36-35.328-8.704-69.12-21.504-99.84-40.448-18.944-11.776-36.352-26.112-50.688-43.52-11.776-14.848-24.064-29.696-33.792-46.08-16.384-27.648-27.648-57.344-35.84-88.064-13.824-48.64-22.016-98.816-25.088-149.504-2.048-32.256-4.608-64.512-4.096-96.256 0.512-44.032 6.656-87.552 22.016-129.024 13.312-36.352 34.304-68.096 63.488-94.208 24.064-21.504 51.2-37.888 81.408-48.64 24.576-9.216 49.664-17.408 75.264-23.04 29.696-6.144 60.416-10.24 90.624-12.8 38.912-3.584 78.848-5.12 115.2-7.168z m10.24 33.28c-54.272 0-108.544 2.56-161.792 12.288-38.4 6.656-75.776 16.896-110.592 35.328-27.648 14.336-51.2 33.28-70.656 57.856-19.456 24.576-32.256 52.736-40.448 82.944-11.264 41.984-14.336 84.48-13.824 127.488 1.024 43.52 4.608 86.528 11.776 130.048 6.144 39.424 14.848 78.336 29.696 115.712 13.824 35.328 32.768 67.072 60.416 93.184 17.92 16.896 37.888 30.72 60.416 40.96 39.936 18.944 82.432 28.16 125.952 31.744 37.888 3.584 76.288 5.12 114.688 5.632 58.88 1.024 117.248-3.584 174.08-17.408 22.528-5.632 44.032-13.312 64.512-24.064 35.84-18.944 65.024-44.544 86.528-79.36 14.336-23.04 25.6-47.616 34.304-73.216 14.848-46.08 22.528-93.184 27.648-141.312 6.656-66.048 9.216-131.584-5.632-197.12-6.656-29.696-17.408-57.856-34.304-82.944-29.696-44.032-72.704-71.68-122.368-87.552-27.648-8.704-56.32-14.848-85.504-19.968-48.64-8.704-96.768-10.24-144.896-10.24z m8.192 43.52c43.008 1.536 85.504 3.584 127.488 12.8 24.576 5.12 49.152 11.776 71.68 22.528 34.304 16.896 65.024 38.4 87.04 70.656 21.504 31.232 33.28 65.536 39.424 102.912 6.656 38.912 7.168 78.336 3.072 117.76-2.56 26.624-6.144 52.736-10.752 78.848-7.168 36.352-18.432 71.68-35.84 104.448-17.92 33.792-42.496 61.44-73.728 82.944-24.064 16.384-50.688 27.648-78.848 34.816-58.88 15.36-118.784 16.896-178.688 13.824-30.72-1.536-61.44-5.12-91.648-12.8-37.376-9.728-72.192-25.088-101.888-50.176-25.6-22.016-45.568-48.64-60.416-79.36-18.432-38.4-28.672-79.36-35.328-121.856-5.12-33.28-8.192-66.56-8.192-99.84 0-29.696 2.56-59.392 9.216-88.576 7.68-33.792 21.504-65.536 43.008-92.672 25.6-32.256 58.368-53.248 96.256-67.584 39.424-14.848 80.384-22.016 122.368-24.576 24.576-1.536 50.176-2.56 75.776-4.096z m-174.08 173.056c0.512-34.816 1.536-69.632 2.048-104.96 0-6.144-2.56-8.192-8.192-5.632-5.12 2.048-10.24 4.096-14.848 6.144C285.696 276.48 256 305.152 237.056 344.576c-14.848 30.72-21.504 63.488-23.552 96.768-5.12 64 1.536 126.976 19.456 188.416 9.216 30.72 22.528 59.392 43.008 84.992 26.624 33.792 60.416 56.32 101.376 68.096 19.968 5.632 40.448 9.216 61.44 12.288 14.336 2.048 28.672 2.56 43.008 3.072 3.072 0 7.168-1.024 8.704-3.072 1.024-2.048 0-6.144-1.536-9.216-2.048-4.608-5.12-8.704-7.68-12.8-37.376-67.584-74.752-137.728-110.592-207.36-18.432-35.328-26.112-72.704-26.112-112.64l1.536-90.624z m465.408 109.056c-1.536-46.08-6.656-86.528-24.064-124.928-10.752-23.552-26.112-44.032-46.08-60.928-16.896-14.336-35.84-25.088-56.32-33.28-7.68-3.072-10.752-1.024-10.24 7.68 1.024 70.144 2.56 140.288 3.072 210.944 0 22.016-4.096 44.032-12.8 64.512-36.352 87.04-84.48 169.472-131.584 250.88-4.096 7.168-2.048 11.776 6.144 11.776 33.28 0 66.048-4.096 97.792-12.288 28.16-7.68 54.784-19.968 77.824-38.912 17.408-14.336 32.256-30.208 44.032-49.152 23.552-37.376 35.84-78.848 43.52-121.856 6.656-36.352 8.704-72.704 8.704-104.448zM511.488 227.84c-40.96 2.048-81.92 3.072-122.368 10.752-10.24 2.048-11.776 4.096-8.704 13.824 40.96 118.272 80.896 237.056 124.416 354.304 1.024 3.072 4.608 6.656 6.656 6.656 2.56 0 6.656-3.072 7.68-5.632 43.008-118.272 91.648-237.056 125.952-358.4 1.024-4.096 1.024-8.704-4.608-9.728-9.728-1.536-19.968-4.096-29.696-4.608-33.792-3.072-66.56-5.12-99.328-7.168z" p-id="11482"></path></svg>