<?xml version="1.0" standalone="no"?><!DOCTYPE svg PUBLIC "-//W3C//DTD SVG 1.1//EN" "http://www.w3.org/Graphics/SVG/1.1/DTD/svg11.dtd"><svg t="1755441131021" class="icon" viewBox="0 0 1024 1024" version="1.1" xmlns="http://www.w3.org/2000/svg" p-id="12975" xmlns:xlink="http://www.w3.org/1999/xlink" width="200" height="200"><path d="M563.2 600.746667c-3.413333 34.133333 0 68.266667 10.24 98.986666 20.48 85.333333 129.706667 92.16 150.186667 133.12 13.653333 20.48 13.653333 58.026667 6.826666 109.226667-105.813333 30.72-204.8 17.066667-249.173333-51.2-54.613333-75.093333-17.066667-191.146667 81.92-290.133333z m68.266667-51.2c-17.066667 64.853333-17.066667 116.053333 0 146.773333 30.72 58.026667 136.533333 51.2 153.6 150.186667 3.413333 20.48 3.413333 40.96 3.413333 64.853333V921.6c-13.653333 6.826667-23.893333 13.653333-37.546667 17.066667 6.826667-40.96 3.413333-71.68-3.413333-95.573334-23.893333-78.506667-153.6-54.613333-163.84-184.32-3.413333-20.48-3.413333-47.786667 3.413333-71.68 13.653333-17.066667 27.306667-30.72 44.373334-37.546666z m58.026666-37.546667c-17.066667 75.093333-17.066667 119.466667 0 153.6 30.72 58.026667 136.533333 51.2 153.6 150.186667 3.413333 20.48 3.413333 40.96 3.413334 64.853333v6.826667c-13.653333 10.24-23.893333 13.653333-37.546667 20.48 6.826667-40.96 6.826667-75.093333-3.413333-98.986667-23.893333-78.506667-153.6-54.613333-163.84-184.32-3.413333-27.306667 0-58.026667 6.826666-88.746667 13.653333-10.24 23.893333-17.066667 40.96-23.893333z m54.613334-20.48c-17.066667 64.853333-17.066667 116.053333 3.413333 146.773333 30.72 58.026667 136.533333 51.2 153.6 150.186667 3.413333 13.653333 3.413333 30.72 3.413333 47.786667v6.826666c-13.653333 10.24-23.893333 20.48-37.546666 30.72 6.826667-37.546667 3.413333-68.266667-3.413334-92.16-23.893333-81.92-153.6-58.026667-167.253333-187.733333-3.413333-27.306667 0-58.026667 6.826667-92.16l40.96-10.24z m256 47.786667c51.2 75.093333 17.066667 187.733333-75.093334 283.306666 0-44.373333-17.066667-81.92-37.546666-105.813333-51.2-54.613333-119.466667-47.786667-129.706667-109.226667-6.826667-27.306667 0-68.266667 10.24-119.466666l6.826667-3.413334c95.573333-27.306667 184.32-6.826667 225.28 54.613334zM426.666667 921.6c-34.133333-40.96-44.373333-95.573333-34.133334-153.6h-40.96c-157.013333 0-286.72-47.786667-334.506666-88.746667-3.413333-3.413333-10.24-3.413333-17.066667 0V819.2c0 58.026667 153.6 122.88 354.986667 122.88 30.72 0 61.44 0 88.746666-3.413333-6.826667-6.826667-10.24-13.653333-17.066666-17.066667zM361.813333 457.386667c197.973333 0 358.4-64.853333 358.4-184.32 0-119.466667-160.426667-184.32-358.4-184.32C143.36 85.333333 0 167.253333 0 269.653333c0 116.053333 160.426667 187.733333 361.813333 187.733334z" p-id="12976"></path><path d="M354.986667 699.733333c20.48 0 44.373333 0 64.853333-3.413333 23.893333-51.2 61.44-105.813333 112.64-150.186667 58.026667-51.2 126.293333-81.92 187.733333-95.573333v-3.413333c0-10.24-10.24-13.653333-20.48-6.826667-47.786667 40.96-187.733333 88.746667-348.16 88.746667-157.013333 0-286.72-47.786667-334.506666-88.746667-3.413333-3.413333-10.24-3.413333-17.066667 0v136.533333c0 58.026667 153.6 122.88 354.986667 122.88z" p-id="12977"></path></svg>