<svg version="1.2" xmlns="http://www.w3.org/2000/svg" viewBox="0 0 300 300" width="300" height="300">
	<title>福耀</title>
	<style>
		.s0 { fill: #231815 } 
		.s1 { fill: #005bab } 
		.s2 { fill: #ffffff } 
	</style>
	<g id="图层 1">
		<g id="&lt;Group&gt;">
			<path id="&lt;Compound Path&gt;" fill-rule="evenodd" class="s0" d="m204.9 159.3c-0.1-1.9 0.2-4.3-0.2-6h-5.5l-0.1 8.9h9.6c4.9 0.7 4.1 7.3-5 21.1-0.3 0.4-0.6 0.8-0.9 1.2-0.4 0.6-0.1-0.3-0.4 0.7 1.7 2.4 8 10.6 9.6 10.9v0.4l-8 0.1c-0.2-0.5-0.3-0.6-0.7-1-1.5-1.5-3.2-3-4.5-4.7-0.2-0.3 0 0.2-0.2-0.5-1.3 0-5.1 4.9-6.3 5.9q-0.2 0-0.3 0.1c-0.7 0.5-6.3 0.2-7.6 0.2 1.6-1.7 10-11.4 10-11.4-2.1-3.3-8.9-13.9-9-17.5h8.1c0.5 3.6 4.3 8.5 4.4 10.9 2.6-2.3 5.2-9 5.1-12.5h-18.1c-0.2 11.2-1.3 19.1-3.3 30.5h-5.2l0.2-3.2c0.7-14.6 0.5-29 1.1-43.4l14.1-0.1v-1.8l7.1 0.1v1.7h10.4c1.4 0.1 2.1 0.8 2.1 2v7.4h-2.4zm60.3 31.6c-1.1 0-3.3 0.4-4.1-0.3-0.3-0.3-0.4-0.7-0.5-1.2-1.8 0-8 1.8-9.7 2.6-0.7 0.4-3.9 0.6-4.8 0.6v-5.2l1-0.2c0.4-2.9 2.7-5.7 2.9-10.3l-5.1 0.1v19.6l-6.9 0.2v-23.2h13.1l0.4-1.6c-2.4 0-7.4 0.2-9.7-0.1-0.8-0.1-1.1-0.5-1.6-1.1-1.7-1.8-0.8-13-0.8-16.4l6.8-0.1v11.8c0.5-0.1 0.8-0.2 1.2-0.5l3.2-3.2 0.7-0.5c0 0 0.1 0 0.2-0.1 0 0 0.1 0 0.1 0-0.5-2.6-4.3-5.6-4.4-7.4l6.3-0.1c0.6 1.2 1.1 2 1.7 2.7 0.7-0.7 1.4-1.6 1.5-2.7h6.6c-0.8 2-4.6 6.4-4.7 7.3 2.2 1.3 2.9 2.5 4.9 4.1v-11.3l6.8-0.1v15.1c0 0.6-0.1 1-0.5 1.5-0.2 0.3-0.1 0.1-0.3 0.3l-0.7 0.6c-1.2 0.5-9.2 0.2-10.8 0.2l-0.1 1.6h14.1c-0.4 1.1 0.1 16.3-0.1 20.1 0 1.8-1.3 2.9-3.1 2.9-1.9 0.1-3.8 0.2-5.6 0-0.4-1.3-1.4-2.3-1.3-3.2l2.8-0.1c0.7-0.2 0.5-1.6 0.5-2.4zm-95-3.8c2 0 2.7-1 5.2-1.3v3.9c-3.2 2.6-15.5 5.9-18.2 6.4v-5.6c1.4 0 3.2-1.1 5.8-1.3 0.3-1.9 0.1-15.6 0.1-18.7h-5.8l0.1-3.6h5.7v-13.7h-5.7l0.1-3.8h18.4l0.6 0.5v2.7l-0.6 0.6h-5.7v13.7c1 0 5.3-0.2 5.7 0.2h0.7l-0.1 3.4-6.3 0.1zm-64.6-14.8c-0.1 10.5-0.8 15.6-3.2 24.4h-6.1c1.3-8.2 2.5-13.2 2.3-24.4h-2.5l-0.1-3.7h8l0.1-19.9h6.9v19.7l8 0.2c-0.1 1.1 0.1 2.4-0.1 3.7h-2.4l0.1 21.1c0.9 0.7 0.6 0.5 2.8 0.5l-0.4 2.7c-1 0-6 0.4-7.7 0.1-2.3-0.3-1.5-21.4-1.5-24.4zm79.3-18c0 2.3 0 6.1 0.1 8.5h6.8c0.1-2.1 0.1-7.6 0-9.5h-6.8zm-57.6 2.8v-5.1c-0.2-0.5-0.7-0.4-1.4-0.4h-5.4v-2.9h13.6c0.9 2.2 0.5 7 0.5 9.7 0 2.9 0.2 7.4-0.2 10h-6.4l-0.2-0.3c-0.6-0.8-0.4-5.9-0.4-7h-0.6c-0.4 1.7-1.7 5.3-1.8 6.7h-5.1c0.5-3.6 2.7-7.1 2.8-8.3l4.7-0.1v-0.6q-1.3 0-2.6 0c-3.4 0-5.2-5.9-3.8-6.2h4.1c0.9 2.9 0.8 4.5 2.2 4.5zm15.3 0v-5.1c-0.2-0.6-2-0.4-3.2-0.4q-1.8 0-3.7 0l0.1-2.9 14-0.1v19.3 0.6h-7.1l-0.1-6.9h-0.7c-0.3 1.6-1.5 4.6-1.6 6.2l-5.1 0.2c0-3.8 2.6-6.8 2.8-8.5l4.6-0.1v-0.6q-1.3 0-2.5 0c-2.9 0-4.3-3.4-4.4-6.2h4.6c0.4 1.1 0.8 3.2 1.4 4.1 0.3 0.4 0.1 0.4 0.9 0.4zm-46.4-6.9h6.3c0 6.5 0.3 12.1 0.5 17.7h-5.1c-0.1-5.4-1.7-10.8-1.7-17.7zm46.3 27.9h7.3v3.3h-7.3v4.2h7.3l-0.1 3.6h-7.2v4.2l7.3-0.1v3.4h-26.5c-0.4-0.1-0.2-0.1-0.5-0.2l-0.9-0.5c-1.1-0.6-0.7-0.5-1-1.4-0.5-1.7-0.2-13.9-0.2-16h-3c0-0.6 0.4-1 0.8-1.6 0.3-0.5 0 0.3 0.3-0.5l0.4-1.3c0.1 0 0.2-0.2 0.2-0.3q0 0 0.1-0.1l1.7-4.2q0.1 0 0.1-0.1c0.3-0.6 0.3-0.5 0.4-1.5h7.3v1.6h6.2l0.1-1.6 7.2 0.1 0.1 1.5h7.2l-0.1 3.3h-7.2zm-7.3 0v-4.1h-6.8v4.1zm83.2-11.1h5.8v-13.8h-5.9v-3.3-0.6h18l0.1 3.9h-5.6l0.1 14h5.4v3.1h-5.5v16.9c1.7-0.1 3.9-1.1 5.8-1.4v3.9c-2.1 1.9-14.4 5.7-18.3 6.3v-5.2c1.2-0.9 3-1.3 5.7-1.5l0.1-18.6h-5.2c-1.1-0.1-0.4 0.1-0.6-0.5zm-159.4-18.2h30.2l0.1 3.3c-9.9 0-20.4 0.1-30.3 0zm53.1 1.5c2.1-0.1 4.1 0 6.1 0 0 7.7-0.5 10.9-1 17.5l-5.3 0.1c0-5.3 0.2-11.9 0.2-17.6zm139.4-2.1h6.8v1.7l13.5 0.1 0.1 3.3h-34.1l0.1-3.3 13.6-0.1zm-201.8 9.5l0.1 39h-7.4v-39.1h-8.2l-0.1-3.8h23.9l0.1 3.8zm1.2 1.7l6 0.2 0.4 36.1h-5.5c-0.3-11.2-0.9-23.3-0.9-36.3zm-15.5-10.7h21.4v3.3h-21.5v-2.1zm4.8 47.4h-6.1l1.2-36.6h6zm20.3-41.7h27.1v10.1c0 0.8-0.6 1.7-1 2.1-0.2 0.2-0.1 0.1-0.6 0.3-1.6 0.6-20.1 0.3-22.2 0.3-2.5 0-3.2-1.3-3.3-3.3zm7.4 9.2c3 0 9.8 0.4 12.3-0.1l0.1-5.6-12.4-0.1zm60.5 26.4l0.1 3.3 1.6 0.1h5.1v-4.2h-6.8zm0-8.4v4h6.8v-4zm-69.5-12.4h30.2c0.1 3.5 0.7 23.8-0.4 25.6-0.3 0.4 0.1 0-0.4 0.5-0.6 0.6-2.8 1.4-3.7 1.5-1.8 0.2-21.5 0-22-0.2-1.6 0-3.4-0.4-3.7-2.6zm7.9 24.3h3.8v-1.2-1-6.8h-3-0.9zm11.2-12.7h1.9 1.7v-8.4h-3.5zm-11.2 0q2 0 4.1 0v-1.2l-0.1-7.2h-4zm11.2 12.6l4-0.1 0.1-8.9h-4.1zm179.8-8.7c-0.7-1.9-1.2-2.2-1.3-4.3h5.9c0.1 2.1 1.4 6.9 2.5 8.9 0.6-2.4 0.2-9.5 0.2-12.3-2.8 0-5.3-0.1-8.1 0-0.9 5.3-2.4 5.3-3.8 9l4.7-0.6c0-0.2 0-0.5-0.1-0.7zm-7.3-16.8h-4.1l2.2 1.1h13.1l1.8-1.1h-3.9c-0.1-0.5-3.3-2.5-4-3.3h-1c0 0.4-3.7 3.1-4.1 3.3z"/>
			<path id="&lt;Compound Path&gt;" fill-rule="evenodd" class="s0" d="m125.6 227.1c-2.5 0.1-17 0.5-18.8-0.4-3.7-3.7-2.9-8.5 2.4-11.5 0.6-0.3 10.9-0.4 12.5-0.4l0.2-4h-13.7l0.1-2.6c1.2-0.2 14.1-0.2 15.6 0.3 5.8 1 1.9 13.6 1.7 18.6zm-14.6-2.7h9.7c0.7-1.4 0.8-5.3 0.8-6.9-3.3 0-6.5-0.2-9.7 0.2-1 1.5-1.8 2.7-0.8 6.7zm36.5-16c7.1 1.1 3.1 20.7-3.6 18.7-1.5 0.2-3.4 0.1-4.9 0.1-1.2 0-7.5 0.2-8.3-0.4-3.9-3.8-1.5-18.6 4.5-18.4 1.9-0.1 11.4 0 12.3 0zm-2 4.1c-0.1-2.8-8.3-1.6-9-1-1.4 1.3-2.9 9.8-1.8 12.7l8.1 0.1c1.9-3.1 3-6.4 2.7-11.8zm81.2-0.7c-0.1 5-1.3 10.1-1.5 15.3-2.2 0.1-16.9 0.5-19-0.4-2.9-1.2-3.8-8.7 2.2-11.5 1.8-0.9 9.5-0.4 12.1-0.5 0.1-1.8 0.2-2 0.1-3.8l-13.5-0.1v-2.4l16.6 0.1c2.1 0.4 2.6 1.5 3 3.3zm-6.5 5.5l-8.7-0.1c-1.4 2.3-1.8 4.7-1.6 7.1h9.5c0.3-3.4 1.6-7 0.8-7zm-121.1-8.8l5.5 0.1c-0.6 3.8-1.5 11.7-2.6 14.4-0.9 2.3-3.9 4.1-6.2 4.1h-14.9l0.1-2.6 14.2-0.2c0.8-1.2 0.9 0 0.9-2.6-2.2-0.1-9.7 0.4-11.2-0.5-2.9-1.8-1.7-7.5-1.8-12.8l5.7 0.1c0.2 3.7-0.4 6.6-0.6 10.2 3.5 0.4 5.4 0 9.3 0 0-1.3 1.1-9.3 1.6-10.2zm-18.2 0c0.1 4.4-1.5 13.3-2.1 18.6l-18-0.1c-1.5-0.8-3-2.2-2.8-3.8l2.1-14.8h5.5c-0.4 4.4-2.1 12.7-1.8 15.9 4.9 0.8 9.4 0.5 9.6-0.9l2-15 5.1 0.1zm88 15.8c2.2 0.2 6.1 0.2 8.3 0 1.2-1.1 1.6-4 1.6-6.1l-4.7-0.1v-2.2c2.2-0.2 8.6-0.2 10.8 0 0 2.8-0.2 11.2-6.1 11-1.7 0.3-12.2 0.3-13.4 0-3.8-1.3-3.1-18.6 4.6-18.6 4.2-0.2 12.1 0 16.5 0l-0.4 2.4h-15.1c-1.7 4.5-2.1 9-2.1 13.6zm-108.9-19.2c-0.9 2.5-0.3 1.4-1.5 3.2l-13.5 0.2c-0.1 0.4-1.9 4-1.6 5.7h12.1c-0.1 2.9 0 1.3-0.2 3.3h-12.5c-0.2 3.4-0.9 7.7-1.2 9.5h-7c1.9-20.1 4-22.3 13.7-22 4.2 0 7.6-0.1 11.7 0.1zm211.9 5.6c-0.8 0.1-13.2 0-13.6 0.2-1.9 2.5-1.6 3.6-1 5.5 1.5 0 9.6-0.1 10.3 0.3 5 3.1 1.5 9.1-2.3 10.1-2.1 0.6-14.1 0.3-16.6 0.3l0.2-2.1c2-0.2-0.2-0.7 2.9-0.7l11.1-0.1c2-1.3 2.6-3.7 0.9-5-3.5-0.1-12.7 1.4-12.9-3.8 0-1.1-0.1-2.1 0.4-2.9 0.9-1.9 1-2.7 2.9-3.6q0 0 0.1-0.1c1.7-0.9 4.1-0.5 7-0.5h10.7c-0.1 2.1-0.1 1.7-0.1 2.4zm-23-0.5v0.6c-0.8 0-12.2-0.1-12.6 0.1-2.1 0.4-1.3 4.7-0.5 5.6 2.1 0.1 9.6-0.1 10.3 0.3 4 2.2 0.7 9.4-2.1 10.2h-16.7v-2.7c0.1 0 10.8 0.2 13.9 0 1.1-0.7 2-4.3-0.2-5.1-1.5-0.1-8.7 0.3-9.8-0.4-5.1-3.4-1.1-10.4 3-10.5h15.3l-0.1 1.9zm-54.4-1.9c0.3 4-1.7 11-1.7 16l9.2 0.1v2.6c-2.4 0.2-11.9 0.3-13.3-0.2-1.1-0.4-2.2-1.6-2-3.2l1.7-15.3z"/>
		</g>
		<path id="&lt;Path&gt;" class="s1" d="m152.7 133.1h0.3 0.3 0.3 0.4 0.3 0.2 0.1 0.2 0.1 0.2 0.2 0.1 0.2 0.2 0.1l0.2-0.1h0.1 0.2 0.2 0.1 0.2l0.1-0.1h0.2 0.2 0.1 0.2l0.1-0.1h0.2 0.2l0.1-0.1h0.2 0.1 0.2l0.1-0.1h0.2 0.2l0.1-0.1h0.2 0.1l0.2-0.1h0.1l0.2-0.1h0.2l0.1-0.1h0.2 0.1l0.2-0.1h0.1l0.2-0.1h0.2l0.1-0.1h0.2l0.1-0.1h0.2l0.1-0.1 0.2-0.1h0.1l0.2-0.1h0.1l0.6-0.2 57.7-39.4 0.3-0.2 0.2-0.2 0.3-0.1 0.3-0.2 0.2-0.2 0.3-0.1 0.2-0.2 0.3-0.2 0.2-0.2 0.2-0.1 0.3-0.2 0.2-0.2 0.2-0.2 0.3-0.1 0.2-0.2 0.2-0.2 0.2-0.1 0.2-0.2 0.2-0.2 0.3-0.2 0.2-0.1 0.2-0.2 0.1-0.2 0.2-0.2 0.2-0.1 0.2-0.2 0.2-0.2 0.2-0.1 0.2-0.2 0.1-0.2 0.2-0.2 0.2-0.1 0.1-0.2 0.1-0.1 0.2-0.2 0.1-0.2 0.1-0.1 0.1-0.2 0.1-0.1 0.1-0.2 0.2-0.1 0.1-0.2 0.1-0.1 0.1-0.2 0.1-0.1 0.1-0.2 0.1-0.1 0.1-0.2 0.1-0.1 0.1-0.2 0.1-0.1 0.1-0.2v-0.1l0.1-0.2 0.1-0.1 0.1-0.2 0.1-0.1 0.1-0.2v-0.1l0.1-0.2 0.1-0.1v-0.2l0.1-0.1 0.1-0.2v-0.1l0.1-0.2v-0.1l0.1-0.2v-0.1l0.1-0.2v-0.1l0.1-0.2v-0.1l0.1-0.2v-0.1-0.1l0.1-0.2v-0.1-0.2l0.1-0.1v-0.2-0.1-0.1-0.2l0.1-0.1v-0.2-0.1-0.2-0.1-0.2-0.1-0.1-0.2-0.1-0.2-0.1-0.1-0.2-0.1l-0.1-0.2v-0.1-0.2-0.1l-0.1-0.1v-0.2-0.1-0.2l-0.1-0.1v-0.1l-0.1-0.2v-0.1-0.1l-0.1-0.2v-0.1l-0.1-0.2v-0.1l-0.1-0.1-0.1-0.2v-0.1l-0.1-0.1v-0.2l-0.1-0.1-0.1-0.1-0.1-0.2v-0.1l-0.1-0.1-0.1-0.2-0.1-0.1v-0.2l-0.1-0.1-0.1-0.1-0.1-0.2-0.1-0.1-0.1-0.1-0.1-0.2-0.1-0.1-0.1-0.1-0.1-0.2-0.1-0.1-0.1-0.1-0.1-0.2-0.1-0.1-0.1-0.1-0.1-0.1-0.2-0.2-0.1-0.1-0.1-0.1-0.1-0.2-0.1-0.1-0.2-0.1-0.1-0.2-0.1-0.1-0.2-0.1-0.1-0.2-0.1-0.1-0.2-0.1-0.1-0.1-0.2-0.2-0.1-0.1-0.2-0.1-11-7.5-27.7-18.3-14-9.3-0.2-0.2-0.2-0.1-0.2-0.2-0.2-0.2-0.2-0.1-0.2-0.2-0.2-0.2-0.2-0.1-0.2-0.2-0.2-0.2-0.3-0.1-0.2-0.2-0.2-0.2-0.2-0.1-0.2-0.2-0.2-0.1-0.2-0.2-0.2-0.2-0.3-0.1-0.2-0.2-0.2-0.1-0.2-0.2-0.2-0.1-0.2-0.2-0.3-0.1-0.2-0.2-0.2-0.1-0.2-0.1-0.3-0.2-0.2-0.1-0.2-0.2-0.2-0.1-0.3-0.1-0.2-0.2-0.2-0.1-0.2-0.1-0.3-0.1-0.2-0.2-0.2-0.1-0.3-0.1-0.2-0.1-0.2-0.1-0.3-0.2-0.2-0.1-0.2-0.1-0.3-0.1-0.2-0.1-0.3-0.1-0.2-0.1-0.3-0.1-0.2-0.1-0.3-0.1-0.2-0.1-0.3-0.1-0.2-0.1-0.3-0.1-0.2-0.1-0.3-0.1h-0.2l-0.3-0.1-0.3-0.1-0.2-0.1h-0.3l-0.2-0.1-2.4-0.5h-0.1-0.2-0.1l-0.1-0.1h-0.2-0.1-0.1-0.1l-0.2-0.1h-0.1-0.1-0.2-0.1-0.1-0.2-0.1-0.1l-0.2-0.1h-0.1-0.1-0.2-0.1-0.1-0.2-0.1-0.1-0.2l-0.1 0.1h-0.2-0.1-0.1-0.2-0.1-0.1-0.2-0.1l-0.2 0.1h-0.1-0.1-0.2-0.1l-0.2 0.1h-0.1-0.2-0.1l-0.2 0.1h-0.1-0.2-0.1l-0.1 0.1h-0.2-0.1l-0.2 0.1h-0.1-0.2l-0.2 0.1h-0.1l-0.2 0.1h-0.1-0.2l-0.1 0.1h-0.2l-0.1 0.1h-0.2l-0.1 0.1h-0.2l-0.2 0.1h-0.1l-0.2 0.1h-0.1l-0.3 0.1-0.4 0.2-0.3 0.1-0.3 0.1-0.4 0.1-0.3 0.2-0.3 0.1-0.4 0.1-0.3 0.2-0.4 0.1-0.3 0.2-0.4 0.1-0.3 0.2-0.4 0.2-0.3 0.1-0.4 0.2-0.3 0.2-0.4 0.2-0.4 0.2-0.3 0.1-0.4 0.2-0.4 0.2-0.4 0.2-0.4 0.3-0.4 0.2-0.4 0.2-0.4 0.2-0.4 0.2-0.4 0.3-54.8 36.5-1.3 0.9-0.3 0.1-0.2 0.2-0.3 0.2-0.2 0.2-0.2 0.1-0.3 0.2-0.2 0.2-0.2 0.2-0.3 0.1-0.2 0.2-0.2 0.2-0.2 0.2-0.2 0.2-0.2 0.1-0.2 0.2-0.2 0.2-0.2 0.2-0.2 0.1-0.1 0.2-0.2 0.2-0.2 0.2-0.1 0.1-0.2 0.2-0.2 0.2-0.1 0.2-0.2 0.1-0.1 0.2-0.2 0.2-0.1 0.2-0.1 0.1-0.2 0.2-0.1 0.2-0.1 0.2-0.2 0.1-0.1 0.2v0.1l-0.1 0.1v0.1l-0.1 0.1-0.1 0.1v0.1l-0.1 0.1v0.1l-0.1 0.1v0.1l-0.1 0.1v0.1h-0.1v0.1 0.1l-0.1 0.1v0.1l-0.1 0.1v0.1 0.1h-0.1v0.1 0.1l-0.1 0.1v0.1 0.1l-0.1 0.1v0.1 0.1l-0.1 0.1v0.1 0.1 0.1l-0.1 0.1v0.1 0.1 0.1 0.1l-0.1 0.1v0.1 0.1 0.1 0.1 0.1 0.1 0.1 0.1 0.1l-0.1 0.1v0.1 0.1 0.1 0.1 0.1l0.1 0.1v0.1 0.1 0.1 0.1 0.1 0.1 0.1 0.1 0.1l0.1 0.1v0.1 0.1 0.1 0.1l0.1 0.1v0.1 0.1 0.1h0.1v0.1 0.1 0.1l0.1 0.1v0.1 0.1l0.1 0.1v0.1l0.1 0.1v0.1 0.1l0.1 0.1v0.1l0.1 0.1v0.1l0.1 0.1v0.1l0.1 0.1v0.1l0.1 0.1v0.1l0.1 0.1v0.1h0.1v0.1l0.1 0.1v0.1l0.1 0.2 0.2 0.2 0.1 0.1 0.1 0.2 0.1 0.2 0.2 0.2 0.1 0.2 0.1 0.1 0.2 0.2 0.1 0.2 0.2 0.1 0.1 0.2 0.2 0.2 0.2 0.2 0.1 0.2 0.2 0.1 0.2 0.2 0.2 0.2 0.1 0.2 0.2 0.1 0.2 0.2 0.2 0.2 0.2 0.2 0.2 0.2 0.2 0.1 0.2 0.2 0.3 0.2 0.2 0.2 0.2 0.1 0.2 0.2 0.3 0.2 0.2 0.2 0.2 0.2 0.3 0.1 0.2 0.2 0.3 0.2 0.2 0.2 0.3 0.1 0.4 0.2v0.1l56.7 38.1 0.2 0.1 0.2 0.1 0.2 0.2 0.2 0.1 0.2 0.1 0.2 0.1 0.2 0.1 0.3 0.1 0.2 0.1 0.2 0.1 0.2 0.2 0.2 0.1 0.2 0.1 0.2 0.1 0.2 0.1 0.2 0.1 0.2 0.1 0.2 0.1 0.2 0.1 0.2 0.1h0.2l0.3 0.1 0.2 0.1 0.2 0.1 0.2 0.1 0.2 0.1 0.2 0.1 0.3 0.1h0.2l0.2 0.1 0.2 0.1h0.3l0.2 0.1 0.2 0.1 0.2 0.1h0.3l0.2 0.1h0.2l0.2 0.1 0.3 0.1h0.2l0.2 0.1h0.3l0.2 0.1h0.2l0.3 0.1h0.2l0.3 0.1h0.2 0.2l0.3 0.1h0.2 0.3l0.2 0.1h0.3 0.2l0.3 0.1h0.2 0.3 0.2 0.3 0.3 0.2z"/>
		<path id="&lt;Path&gt;" class="s2" d="m120.1 105.5l4.5-7h33.4l4.5-6.5h-28.3l12.9-21.8h-5.6l-13.6 21.8h-28l6.5-10.8 2.6-4.4 2.2-3.7 1.9-3.2 1.6-2.7 1.3-2.1 0.5-1 0.5-0.8 0.4-0.7 0.4-0.7 0.3-0.5 0.3-0.5 0.3-0.5 0.2-0.3 0.1-0.3 0.2-0.3 0.1-0.2v-0.1h0.1v-0.1-0.1h0.1v-0.1-0.1h0.1v-0.1-0.1l0.1-0.2 0.1-0.2 0.2-0.2 0.1-0.2 0.1-0.2 0.2-0.1 0.1-0.2 0.1-0.1v-0.1l0.1-0.1 0.1-0.1v-0.1l0.1-0.1h0.1v-0.1l0.1-0.1 0.1-0.1 0.1-0.1v-0.1h0.1l0.1-0.1 0.1-0.1v-0.1h0.1l0.1-0.1 0.1-0.1v-0.1h0.1l0.1-0.1 0.1-0.1v-0.1h0.1l0.1-0.1 0.1-0.1h0.1v-0.1l0.1-0.1h0.1l0.1-0.1 0.1-0.1 0.1-0.1h0.1l0.1-0.1 0.1-0.1h0.1v-0.1h0.1l0.1-0.1h0.1l0.1-0.1h0.1v-0.1l0.1-0.1h0.1l0.1-0.1h0.1 0.1l0.1-0.1h0.1l0.1-0.1 0.1-0.1h0.1l0.1-0.1h0.1 0.1l0.1-0.1h0.1l0.1-0.1h0.1 0.1l0.1-0.1h0.1 0.1l0.1-0.1h0.1 0.1l0.1-0.1h0.1 0.1 0.1l0.1-0.1h0.1 0.1 0.1l0.1-0.1h0.1 0.1 0.1l0.1-0.1h0.1 0.1 0.1 0.1 0.1l0.1-0.1h0.1 0.1 0.1 0.1 0.1 0.2 0.1 0.1l0.1-0.1h0.1 0.1 0.1 0.1 0.1 0.1 0.2 0.2 0.2 0.2 0.3 53.1l-4 6.9h-32.4l-2.1 3.6-0.3 0.5v0.1 0.1h-0.1v0.1 0.1 0.1 0.1 0.1 0.1 0.1 0.1 0.1 0.1 0.1 0.1h0.1v0.1 0.1h0.1v0.1h0.1v0.1h0.1v0.1h0.1l0.1 0.1h0.1l0.1 0.1h0.1 0.1 0.1 0.1l0.1 0.1h0.1 0.1 0.1 0.1 0.1l25.8-0.1-11.4 20.3v0.1 0.1 0.1 0.1 0.1 0.1 0.1h0.1v0.1 0.1 0.1h0.1v0.1h0.1v0.1l0.1 0.1h0.1 0.1l0.1 0.1h0.1 0.1v0.1h0.1 0.1 0.1l0.1 0.1h0.1 0.1 0.1 0.1 0.1 0.1 0.1 0.1l0.1-0.1h0.1 0.1 0.1v-0.1h0.1 0.1v-0.1h0.1 0.1v-0.1h0.1v-0.1h0.1l0.1-0.1 0.1-0.1 0.1-0.2 0.2-0.3 0.1-0.4 0.2-0.3 0.2-0.4 0.2-0.4 0.3-0.4 0.2-0.5 0.3-0.4 0.3-0.5 0.3-0.6 0.3-0.5 0.3-0.6 0.3-0.6 0.4-0.6 0.4-0.7 0.4-0.7 0.4-0.7 0.4-0.7 0.4-0.7 0.5-0.8 0.4-0.8 0.5-0.8 0.5-0.9 0.5-0.9 0.6-0.9 1.1-1.8 1.2-2 1.2-2.1h27.8l-12.1 21.5-5.2 9.3-0.1 0.3-0.1 0.2-0.2 0.3-0.1 0.2-0.1 0.3-0.1 0.2-0.2 0.2-0.1 0.3-0.2 0.2-0.1 0.2-0.1 0.2-0.2 0.3-0.1 0.2-0.2 0.2-0.1 0.2-0.1 0.2-0.2 0.2-0.1 0.2-0.2 0.2-0.1 0.1-0.2 0.2-0.1 0.2-0.2 0.2-0.1 0.1-0.2 0.2-0.1 0.1v0.1h-0.1l-0.1 0.1-0.1 0.1v0.1h-0.1l-0.1 0.1-0.1 0.1-0.1 0.1-0.1 0.1-0.1 0.1h-0.1l-0.1 0.1v0.1h-0.1l-0.1 0.1-0.1 0.1h-0.1l-0.1 0.1-0.1 0.1-0.1 0.1h-0.1l-0.1 0.1-0.1 0.1h-0.1l-0.1 0.1h-0.1l-0.1 0.1-0.1 0.1h-0.1l-0.1 0.1h-0.1l-0.1 0.1h-0.1v0.1h-0.1-0.1l-0.1 0.1h-0.1l-0.1 0.1h-0.1-0.1l-0.1 0.1h-0.1l-0.1 0.1h-0.1-0.1l-0.1 0.1h-0.1-0.1-0.1l-0.1 0.1h-0.1-0.1l-0.1 0.1h-0.1-0.1-0.1-0.1l-0.1 0.1h-0.1-0.1-0.1-0.1-0.1-0.1-0.1l-0.1 0.1h-0.1-0.1-0.1l-3.4 0.4-0.1 0.1-23.3 0.1v-0.1z"/>
	</g>
</svg>