<svg version="1.2" xmlns="http://www.w3.org/2000/svg" viewBox="0 0 500 200" width="500" height="200">
	<title>福耀</title>
	<style>
		<!-- .s0 { fill: #005bab } 
		.s1 { fill: #231815;stroke: #231815;stroke-miterlimit:22.9256;stroke-width: .4 } 
		.s2 { fill: none;stroke: #231815;stroke-miterlimit:22.9256;stroke-width: .4 }  -->
	</style>
	<g id="图层 1">
		<g id="&lt;Group&gt;">
			<path id="&lt;Compound Path&gt;" fill-rule="evenodd" class="s0" d="m112.9 153h-0.2-0.3-0.2l-0.3-0.1h-0.2-0.3-0.2-0.2l-0.3-0.1h-0.2-0.2-0.3l-0.2-0.1h-0.3l-0.2-0.1h-0.2-0.2l-0.3-0.1h-0.2l-0.2-0.1h-0.3l-0.2-0.1h-0.2l-0.2-0.1-0.3-0.1h-0.2l-0.2-0.1h-0.2l-0.2-0.1-0.2-0.1-0.3-0.1h-0.2l-0.2-0.1-0.2-0.1h-0.2l-0.2-0.1-0.2-0.1-0.2-0.1-0.3-0.1-0.2-0.1h-0.2l-0.2-0.1-0.2-0.1-0.2-0.1-0.2-0.1-0.2-0.1-0.2-0.1-0.2-0.1-0.2-0.1-0.2-0.1-0.2-0.1-0.2-0.1-0.2-0.1-0.2-0.1-0.2-0.1-0.2-0.1-0.2-0.1-0.2-0.1-0.2-0.1-0.2-0.1-0.1-0.2-0.2-0.1-0.2-0.1-54.7-36.7v-0.1l-0.4-0.1-0.2-0.2-0.3-0.2-0.2-0.1-0.2-0.2-0.3-0.2-0.2-0.2-0.2-0.1-0.3-0.2-0.2-0.2-0.2-0.1-0.2-0.2-0.2-0.2-0.2-0.2-0.2-0.1-0.2-0.2-0.2-0.2-0.2-0.1-0.2-0.2-0.2-0.2-0.1-0.2-0.2-0.1-0.2-0.2-0.2-0.2-0.1-0.1-0.2-0.2-0.1-0.2-0.2-0.1-0.1-0.2-0.2-0.2-0.1-0.2-0.1-0.1-0.2-0.2-0.1-0.2-0.1-0.1-0.1-0.2-0.2-0.2-0.1-0.1-0.1-0.2v-0.1l-0.1-0.1v-0.1l-0.1-0.1-0.1-0.1v-0.1l-0.1-0.1v-0.1l-0.1-0.1v-0.1l-0.1-0.1v-0.1l-0.1-0.1v-0.1-0.1h-0.1v-0.1-0.1l-0.1-0.1v-0.1-0.1l-0.1-0.1v-0.1-0.1l-0.1-0.1v-0.1-0.1l-0.1-0.1v-0.1-0.1-0.1-0.1l-0.1-0.1v-0.1-0.1-0.1-0.1-0.1-0.1h-0.1v-0.1-0.1-0.1-0.2-0.6-0.2-0.1-0.1-0.1l0.1-0.1v-0.1-0.1-0.1-0.1-0.1l0.1-0.1v-0.1-0.1-0.1-0.1l0.1-0.1v-0.1-0.1l0.1-0.1v-0.1-0.1l0.1-0.1v-0.1-0.1l0.1-0.1v-0.1-0.1h0.1v-0.1-0.1l0.1-0.1v-0.1l0.1-0.1v-0.1l0.1-0.1v-0.1l0.1-0.1v-0.1l0.1-0.1 0.1-0.1v-0.1l0.1-0.1v-0.1l0.1-0.1 0.1-0.2 0.2-0.2 0.1-0.2 0.1-0.1 0.1-0.2 0.2-0.2 0.1-0.1 0.1-0.2 0.2-0.2 0.1-0.1 0.2-0.2 0.1-0.2 0.2-0.2 0.1-0.1 0.2-0.2 0.2-0.2 0.1-0.1 0.2-0.2 0.2-0.2 0.2-0.1 0.2-0.2 0.2-0.2 0.2-0.1 0.2-0.2 0.2-0.2 0.2-0.2 0.2-0.1 0.2-0.2 0.2-0.2 0.3-0.1 0.2-0.2 0.2-0.2 0.2-0.1 0.3-0.2 0.2-0.2 1.3-0.8 52.8-35.2 0.4-0.2 0.4-0.2 0.4-0.2 0.4-0.3 0.3-0.2 0.4-0.2 0.4-0.2 0.3-0.1 0.4-0.2 0.4-0.2 0.7-0.4 0.3-0.2 0.4-0.1 0.3-0.2 0.4-0.1 0.3-0.2 0.3-0.2 0.4-0.1 0.3-0.1 0.3-0.2 0.4-0.1 0.3-0.2 0.3-0.1 0.3-0.1 0.3-0.1 0.3-0.1 0.7-0.3h0.1 0.2l0.1-0.1h0.2l0.1-0.1h0.2l0.1-0.1h0.2l0.1-0.1h0.2l0.1-0.1h0.2 0.1l0.2-0.1h0.1 0.2l0.1-0.1h0.2 0.1l0.1-0.1h0.2 0.1l0.2-0.1h0.1 0.1 0.2l0.1-0.1h0.2 0.1 0.1 0.2l0.1-0.1h0.2 0.1 0.1 0.2 0.1 0.1l0.2-0.1h0.1 0.1 0.2 0.1 0.4 0.1 0.1 0.2 0.4 0.1 0.1 0.2 0.1l0.1 0.1h0.1 0.2 0.1 0.1 0.1 0.2l0.1 0.1h0.1 0.1 0.1 0.2l0.1 0.1h0.1l2.3 0.4 0.3 0.1 0.2 0.1h0.3l0.2 0.1 0.3 0.1 0.2 0.1h0.3l0.2 0.1 0.2 0.1 0.3 0.1 0.2 0.1 0.3 0.1 0.2 0.1 0.2 0.1 0.3 0.1 0.2 0.1 0.3 0.1 0.2 0.1 0.2 0.1 0.2 0.1 0.3 0.1 0.2 0.1 0.2 0.1 0.3 0.2 0.2 0.1 0.2 0.1 0.2 0.1 0.3 0.1 0.2 0.2 0.2 0.1 0.2 0.1 0.2 0.1 0.3 0.2 0.2 0.1 0.2 0.1 0.2 0.2 0.2 0.1 0.2 0.1 0.2 0.2 0.2 0.1 0.3 0.2 0.2 0.1 0.2 0.1 0.2 0.2 0.2 0.1 0.2 0.2 0.2 0.1 0.2 0.2 0.2 0.1 0.2 0.2 0.2 0.1 0.2 0.2 0.2 0.2 0.2 0.1 0.2 0.2 0.2 0.1 0.2 0.2 0.2 0.2 0.2 0.1 0.2 0.2 0.2 0.1 0.2 0.2 0.2 0.2 0.2 0.1 13.5 9 26.7 17.7 10.6 7.1 0.1 0.1 0.2 0.2 0.1 0.1 0.2 0.1 0.1 0.1 0.1 0.2 0.1 0.1 0.2 0.1 0.1 0.1 0.1 0.2 0.2 0.1 0.1 0.1 0.1 0.1 0.1 0.2 0.1 0.1 0.1 0.1 0.2 0.1 0.1 0.2 0.1 0.1 0.1 0.1 0.1 0.2 0.1 0.1 0.1 0.1 0.1 0.1 0.1 0.2 0.1 0.1 0.1 0.1v0.1l0.1 0.2 0.1 0.1 0.1 0.1 0.1 0.2v0.1l0.1 0.1 0.1 0.2 0.1 0.1v0.1l0.1 0.2 0.1 0.1v0.1l0.1 0.1v0.2l0.1 0.1 0.1 0.1v0.2 0.1l0.1 0.1v0.2l0.1 0.1v0.1l0.1 0.2v0.1 0.1l0.1 0.2v0.1 0.1 0.2l0.1 0.1v0.1 0.2 0.1 0.1l0.1 0.2v0.1 0.2 0.1 0.1 0.4 0.2 0.1 0.1l-0.1 0.2v0.1 0.2 0.1 0.1 0.2l-0.1 0.1v0.2 0.1 0.1l-0.1 0.2v0.1 0.2l-0.1 0.1v0.1l-0.1 0.2v0.1l-0.1 0.2v0.1l-0.1 0.1v0.2l-0.1 0.1v0.2l-0.1 0.1-0.1 0.2v0.1l-0.1 0.1-0.1 0.2v0.1l-0.1 0.2-0.1 0.1-0.1 0.2v0.1l-0.1 0.2-0.1 0.1-0.1 0.2-0.1 0.1-0.1 0.1-0.1 0.2-0.1 0.1-0.1 0.3-0.1 0.2-0.2 0.1-0.1 0.2-0.1 0.1-0.1 0.2-0.1 0.1-0.1 0.2-0.1 0.1-0.1 0.1-0.1 0.2-0.2 0.1-0.1 0.2-0.1 0.2-0.2 0.1-0.1 0.2-0.2 0.1-0.2 0.2-0.3 0.3-0.2 0.2-0.2 0.2-0.2 0.1-0.2 0.2-0.2 0.2-0.1 0.1-0.3 0.2-0.2 0.2-0.1 0.1-0.3 0.2-0.2 0.2-0.2 0.1-0.2 0.2-0.2 0.2-0.3 0.1-0.2 0.2-0.2 0.2-0.2 0.1-0.3 0.2-0.2 0.2-0.3 0.1-0.2 0.2-0.3 0.2-0.2 0.1-0.3 0.2-0.2 0.1-55.6 38-0.5 0.2h-0.2l-0.1 0.1h-0.2l-0.1 0.1-0.2 0.1h-0.1l-0.2 0.1h-0.1l-0.2 0.1h-0.1l-0.2 0.1h-0.1l-0.2 0.1h-0.1-0.2l-0.1 0.1-0.3 0.1h-0.2-0.1l-0.2 0.1h-0.1-0.2l-0.1 0.1h-0.2-0.1l-0.2 0.1h-0.1-0.2-0.2l-0.1 0.1h-0.2-0.1-0.2l-0.1 0.1h-0.2-0.1-0.2-0.1l-0.2 0.1h-0.1-0.2-0.2-0.1-0.2-0.1-0.2l-0.1 0.1h-0.2-0.1-0.2-0.3-0.2-1.5zm-1.6-26.6v0.1l22.5-0.1 0.1-0.1 3.3-0.4h0.1 0.1 0.1l0.1-0.1h0.1 0.1 0.1 0.1 0.1 0.1 0.1l0.1-0.1h0.1 0.1 0.1l0.1-0.1h0.1 0.1 0.1l0.1-0.1h0.1 0.1l0.1-0.1h0.1 0.1l0.1-0.1h0.1 0.1l0.1-0.1h0.1l0.1-0.1h0.1l0.1-0.1h0.1 0.1v-0.1h0.1l0.1-0.1h0.1l0.1-0.1h0.1v-0.1h0.1l0.1-0.1h0.1l0.1-0.1 0.1-0.1h0.1l0.1-0.1h0.1v-0.1h0.1l0.1-0.1 0.1-0.1h0.1v-0.1l0.1-0.1h0.1l0.1-0.1 0.1-0.1 0.1-0.1h0.1v-0.1l0.1-0.1 0.1-0.1h0.1v-0.1l0.1-0.1h0.1l0.1-0.2 0.1-0.1 0.2-0.1 0.1-0.2 0.2-0.2 0.1-0.1 0.1-0.2 0.2-0.2 0.1-0.2 0.2-0.1 0.1-0.2 0.1-0.2 0.2-0.2 0.1-0.2 0.2-0.2 0.1-0.2 0.1-0.2 0.2-0.3 0.1-0.2 0.1-0.2 0.2-0.2 0.2-0.5 0.1-0.2 0.2-0.2 0.1-0.3 0.1-0.2 5-9 11.7-20.7h-26.8l-1.2 2-1.2 1.9-1 1.8-0.5 0.8-0.5 0.9-0.5 0.8-0.5 0.8-0.4 0.8-0.5 0.7-0.4 0.7-0.4 0.7-0.4 0.7-0.4 0.7-0.3 0.6-0.4 0.6-0.3 0.6-0.3 0.5-0.3 0.6-0.3 0.5-0.3 0.5-0.2 0.4-0.3 0.4-0.2 0.5-0.2 0.3-0.2 0.4-0.2 0.4-0.1 0.3-0.2 0.3-0.1 0.2-0.1 0.1-0.1 0.1h-0.1v0.1h-0.1l-0.1 0.1h-0.1l-0.1 0.1h-0.1-0.1v0.1h-0.1-0.1-0.1-0.2v0.1h-0.2l-0.1-0.1h-0.1-0.1-0.1-0.1-0.1v-0.1h-0.1-0.1l-0.1-0.1h-0.1l-0.2-0.1h-0.1v-0.1l-0.1-0.1v-0.1h-0.1v-0.1-0.1-0.1h-0.1v-0.1-0.2-0.1-0.2l11-19.5h-24.8-0.2-0.1-0.3-0.1-0.1-0.1v-0.1h-0.1-0.1-0.1v-0.1h-0.1-0.1v-0.1h-0.1v-0.1h-0.1v-0.1l-0.1-0.1v-0.1-0.1h-0.1v-0.1-0.1-0.4-0.1-0.1-0.1l0.1-0.1v-0.1-0.1l0.3-0.5 2.1-3.5h31.2l3.8-6.7-51.2 0.1h-0.2-1.1-0.1-0.2-0.1-0.1-0.1-0.1-0.1-0.1l-0.1 0.1h-0.1-0.1-0.1-0.1-0.2v0.1h-0.1-0.2-0.1-0.1l-0.1 0.1h-0.1-0.1l-0.2 0.1h-0.1-0.1-0.1l-0.1 0.1h-0.1-0.1-0.1l-0.1 0.1h-0.1-0.1l-0.1 0.1h-0.1l-0.1 0.1h-0.1l-0.1 0.1h-0.1-0.1l-0.1 0.1h-0.1l-0.1 0.1h-0.1v0.1h-0.1-0.1l-0.1 0.1h-0.1l-0.1 0.1h-0.1v0.1h-0.1l-0.1 0.1h-0.1l-0.1 0.1h-0.1v0.1l-0.1 0.1h-0.1l-0.1 0.1h-0.1v0.1h-0.1l-0.1 0.1-0.1 0.1-0.1 0.1h-0.1l-0.1 0.1-0.1 0.1-0.1 0.1-0.1 0.1h-0.1v0.1l-0.1 0.1h-0.1l-0.1 0.1v0.1l-0.1 0.1h-0.1v0.1l-0.1 0.1-0.1 0.1-0.1 0.1-0.1 0.1-0.1 0.1v0.1h-0.1l-0.1 0.1v0.1l-0.1 0.1-0.1 0.1v0.1l-0.1 0.1h-0.1l-0.1 0.2-0.1 0.2-0.1 0.2-0.2 0.2-0.1 0.2-0.1 0.2-0.1 0.1-0.1 0.1v0.1 0.1 0.1h-0.1v0.1 0.1h-0.1v0.1l-0.1 0.2-0.2 0.2-0.1 0.3-0.2 0.4-0.2 0.4-0.3 0.5-0.3 0.5-0.4 0.6-0.4 0.7-0.5 0.8-0.5 0.9-1.3 2.1-1.5 2.6-1.8 3.1-2.2 3.6-2.5 4.2-6.2 10.4h26.9l13.1-21h5.5l-12.4 21h27.2l-4.4 6.2-32.1 0.1-4.3 6.7z"/>
		</g>
		<g id="&lt;Group&gt;">
			<path id="&lt;Path&gt;" class="s1" d="m206.6 59.6v3.8h22.9l0.1-3.7z"/>
			<path id="&lt;Path&gt;" class="s1" d="m205.6 65.8v3.8h8.6v45.5h7.7v-45.4h8.7l0.1-3.9z"/>
			<path id="&lt;Path&gt;" class="s1" d="m206.3 72h6.4c0.1 14-0.2 28.1-2.4 41.9q-2.5 0-5 0c1.4-15 0.9-27.9 1-41.9z"/>
			<path id="&lt;Path&gt;" class="s1" d="m223.4 72q3.2 0 6.4 0c-0.1 14.6-0.1 26.5 1.1 42q-2.5 0-5-0.1c-1.8-14.1-2.8-27.4-2.5-41.9z"/>
			<path id="&lt;Path&gt;" class="s1" d="m232.8 59.7l-0.1 3.7h32.7v-3.7z"/>
			<path id="&lt;Compound Path&gt;" fill-rule="evenodd" class="s1" d="m263.8 66.1c-0.1 0 0.2 10.2-0.2 12.3-0.3 2.1-2.3 2.3-2.4 2.4-0.2 0-21.5 0-24-0.1-2.6 0-2.9-2.8-2.9-2.8v-11.8zm-21.6 10.2c0.1 0.6 0.7 0.8 0.7 0.8 0 0 11.9 0 12.4 0 0.5 0 0.6-0.6 0.6-0.6v-6.6h-13.8c0 0 0 5.8 0.1 6.4z"/>
			<path id="&lt;Compound Path&gt;" fill-rule="evenodd" class="s1" d="m265 83.5c0 0 0.5 24.6 0.3 27.5-0.2 3-4.7 4.1-4.7 4.1 0 0-20.9-0.1-23.5-0.2-2.6-0.1-4.4-3.4-4.4-4.5 0.1-1 0-17.6 0.1-26.9zm-24.5 13.3h4.6v-9.7l-4.6 0.1zm12.4 0h4.6v-9.7h-4.6zm0 14.5q1.9 0 3.9 0c0.5-0.3 0.5-0.6 0.6-1.2l0.1-9.6h-4.6zm-12.5-0.8c0.2 0.4 0.4 0.6 0.8 0.8h3.9l-0.1-10.7h-4.6c0 3.3 0.1 6.6 0 9.9z"/>
			<path id="&lt;Compound Path&gt;" fill-rule="evenodd" class="s1" d="m330.6 59.8c0.7 0.1 1.3 0.5 1.3 1.9 0 1.4 0 13.5 0 20.6h-7.7v-9.9c-1.2 2.8-2.5 5.6-2.7 9.3-1.9 0.1-3.9-0.1-5.8-0.1 0.7-3.4 1.5-6.2 3.5-9.3 2.2 0 3.3-0.1 5 0v-1.2c-1.1 0-3.9 0-4.9 0-2.2-2.9-2.3-3.4-3.2-6.9 0.2 0 4.6 0 5.4 0 0.1 1.3 1.2 5.1 2.7 6.6v-7.1c0-0.1-0.5-0.5-0.5-0.5h-7.6v-3.4c0 0 13.9 0 14.5 0zm-21.4 23.6l-0.4 1.7h7.2l0.1-1.7h7.5v1.7l8.3-0.1v3.8h-8.3v5.1h8.3v3.8h-8.3v4.9h8.3v3.9h-8.3v5h8.3v3.9h-28.2c0 0-3.3-0.5-3.5-3.3-0.2-2.8-0.1-17.9-0.1-17.9h-3.3c0 0 3.3-6.9 4.4-10.7zm-20.5-23.6v23.1h9v3.8h-2.5c0.1 10.2-0.1 16.7 0 24.2 0 1.3 2.2 0.9 3.5 1-0.4 1-1.4 3.2-1.4 3.2 0 0-5.6 0.3-7 0-1.4-0.3-2.4-2-2.4-2.7 0.1-8.8-0.1-17.1 0-25.8h-5.1c-0.1 13.3-1 20.2-3.7 28.6-2.2 0-3.9 0-6.4-0.1 2-9.2 3.1-17.7 2.8-28.4h-2.9l-0.1-3.9 9.2 0.2-0.1-23.3zm18.8 12.4v-1.1c-1.1 0-3.9 0-4.9 0-2.2-2.9-2.3-3.5-3.1-6.9 0.1 0 4.5 0 5.3 0 0.1 1.3 1.3 5.1 2.7 6.5v-7c0-0.1-0.5-0.5-0.5-0.5l-7.6-0.1 0.1-3.3c0 0 13.8 0 14.5 0 0.6 0.1 1.2 0.5 1.2 1.9 0 1.4 0 13.5 0 20.5h-7.7v-9.8c-1.2 2.8-2.5 5.5-2.6 9.3-1.9 0-3.9-0.2-5.8-0.1 0.6-3.4 1.4-6.2 3.5-9.3 2.1-0.1 3.3-0.1 4.9-0.1zm-16.8-10.9l6.5 0.1c0 6.9-0.3 13.8-2.1 20.4-1.6 0-3.3 0-5.1 0 0.5-6.8 0.7-13.4 0.7-20.5zm17.5 49.3c0 0.6 0.8 0.9 0.8 0.9h7v-5l-7.8 0.1c0 0-0.1 3.3 0 4zm0-8l7.8 0.1v-5h-7.8zm0-8.8h7.8l0.1-5.1h-7.9zm-34.9-32.5h6.6c-0.1 7.3 0.2 16 0.6 20.4-1.3 0-0.9 0-5 0-2.2-7-2.2-18.7-2.2-20.4z"/>
			<path id="&lt;Path&gt;" class="s2" d="m350.1 66.2v5.4l18.9-0.1v-5.4z"/>
			<path id="&lt;Path&gt;" class="s2" d="m350.1 75.2v5.5h18.8v-5.4z"/>
			<path id="&lt;Compound Path&gt;" fill-rule="evenodd" class="s1" d="m343.2 59.7h9.1c0 0-0.6 2.5-0.6 2.6 0 0 17.2 0 17.2 0l0.1-2.6 8 0.1v2.5l21.2-0.1v3.9l-21.2 0.1v5.3h21.1v3.7h-21.1v5.5l21.2-0.1-0.1 3.8-21.1 0.1-0.1 5.3h21.2v3.8l-53.2-0.1c0 0-2.6-0.3-2.8-2.9-0.2-2.6-0.1-19.1-0.1-19.1l-3.1-0.1c2.2-3.6 3.5-7 4.3-11.7zm23.3 36.8v-1.5h8.3v1.4h24.4v3.7l-24.4 0.1c0 4 0 11.7 0 12 0 0.2-0.9 2.8-2.8 2.9-2 0.1-8.5 0.1-8.5 0.1l-1.5-3.5q1.4-0.1 2.7-0.1c0.8-0.3 1.4-0.5 1.8-1.7l-0.1-9.7h-25.9v-3.8zm-21.7 5.1h8.7c-0.9 5.6-2.7 9.8-5.4 13.6q-3.6 0-7.1-0.1c1.8-4.3 3.1-8.2 3.8-13.5zm50.4 0.1c0.6 4.8 1.7 8.9 3.7 13.5-3.2 0-4.4 0-7.1-0.1-2.7-2.2-5.4-11.7-5.5-13.5zm-45-26.4v5.5h18.8v-5.4zm0-9.1v5.4l18.9-0.1v-5.4zm-0.1 18.3c0 0 0 4.1 0 4.6 0.1 0.6 1 0.8 1 0.8l17.9 0.1v-5.4z"/>
			<path id="&lt;Compound Path&gt;" fill-rule="evenodd" class="s1" d="m407 60.2h56.7v51.9c0 0-0.1 2.7-3 3-2.9 0.3-50.9-0.1-50.9-0.1 0 0-2.7-0.3-2.8-3-0.1-2.7 0-51.8 0-51.8zm48.9 3.8h-41c-0.1 16.5-0.1 43.6-0.1 45.2 0.1 1.5 1.2 2.3 2.1 2.3 1 0 37.2 0 37.2 0 1.3-0.4 1.8-1.7 1.8-2.9zm-15.3 6.7l0.1-4.2h8.4v4.2h4.2l-0.1 4.2h-4.1v30.9c0 0.5-0.6 2.5-3 2.7-2.3 0.2-10 0.2-10 0.2l-1.5-3.7h4.3c0 0 1.8-0.6 1.8-1.7 0.1-1.2 0-28.4 0-28.4h-23.2v-4.2zm-3.1 6.1c-2.8 13.9-6.9 21.9-12.3 30.9-2.3 0-4.5 0-6.8 0 4.1-9.6 8.2-19.4 10.6-30.8z"/>
			<path id="&lt;Path&gt;" class="s1" d="m232.7 124.1l-15.7 0.1c-2.7 0-7.3 2.1-8.7 5.9-0.4 1.1-0.6 3.4-1 5.3-1 5.5-2.1 12.3-2.1 12.3 2.4-0.2 7.5 0.7 7.9-1.3l1.6-8.9c4.4 0 12.4 0.2 12.9-0.3 0.6-0.7 0.9-1.8 1-2.9l-13.3-0.1c0.3-1.5 0.5-4.1 0.8-5 0.3-0.7 1.7-1.8 2.7-1.8 4.2 0 11.9 0.1 12.2 0 1.4-0.6 1.6-2 1.7-3.3z"/>
			<path id="&lt;Path&gt;" class="s1" d="m233.1 127.3c1.7 0 3.6 0 5.4 0.1 0.5 0 0.9 0.8 0.8 1.7-0.8 4.7-1.6 8.6-2.5 14 0 0.5 0.6 1.7 1.4 1.7 0.8 0 8.4 0 8.4 0l3-17.5h5c0 0 1.5 0.1 1.3 1.2-0.2 1.1-3.3 19.1-3.3 19.1l-17.1 0.1c0 0-1.3-0.1-2.5-0.8-1.1-0.7-2.6-2.8-2.5-3.7 0.3-3.3 2.6-15.9 2.6-15.9z"/>
			<path id="&lt;Path&gt;" class="s1" d="m258.4 127.2c0.1 0 5.2 0.1 5.2 0.1 0 0 1.2 0.4 1 1.1-0.1 0.7-1.6 8.3-1.3 9.2 0.1 0.5 0.8 1.1 1.4 1.1 0.3 0 8 0.1 8.2 0.1l2.1-11.6h4.9c0 0 1.4 0.3 1.3 1.4 0 1.1-2.1 13-2.4 13.7-0.3 0.6-1.6 4.8-7.1 5.4-1.7 0.2-3.8 0-6 0-4.6 0-9.3 0-9.3 0-0.2 0-1.4-1.3-0.5-2.9 3.7 0 9.4 0.1 14.2 0.1 2.4-1 2.3-2.1 2.3-3.3h-10.6c-1.1 0-2.2-0.6-3.3-1.6-0.7-0.7-1.5-1.6-1.5-2.7-0.1-2.8 1.4-10.1 1.4-10.1z"/>
			<path id="&lt;Compound Path&gt;" fill-rule="evenodd" class="s1" d="m300.7 127.3c0 0 4.7 0.7 5 4.6 0.1 1.5-0.6 4.7-1.1 7.3-0.8 4.5-1.5 8.3-1.5 8.3l-17.6 0.2c0 0-2-0.5-3.4-2.3-0.9-1.1-1.4-3.3-0.8-5.1 1.8-5.7 6.7-6.2 7.5-6.2l10.2-0.1c0 0 0.6-1.7 0.3-2.8-0.1-0.3-0.8-0.9-1.1-1-1.4-0.4-11 0.3-13.1-0.2-0.6-0.2-0.4-2.7 0-2.8 4.4-0.1 15.2 0.1 15.6 0.1zm-2.1 9.6c0 0-7.7 0-8.4 0-0.6 0.1-1.7 1-1.8 1.2-0.6 0.9-1.1 4.9-1 5.5 0.2 0.7 1.4 1.2 1.4 1.2h8.4z"/>
			<path id="&lt;Compound Path&gt;" fill-rule="evenodd" class="s1" d="m308.2 132.2c0 0 1.3-3.8 6-4.7 1.6-0.4 3.6-0.2 5.4-0.2 3.4 0 6.4 0.1 6.4 0.1 0 0 1.8 0.1 3.1 1.2 1.2 1 2 2.7 1.8 4.6-0.1 1.5-0.7 3.9-0.9 5.2-0.4 2.7-0.5 3.9-0.8 4.3-0.3 0.6-2.6 4.8-6.8 5-4.2 0.2-11.8-0.1-11.8-0.1 0 0-4.5-1.4-4.2-5 0.2-3.7 1.8-10.4 1.8-10.4zm8.5-2c-1.1 0.2-1.9 0.9-2 1.7-0.9 4.1-1.3 7-2 11.1-0.1 1.2 0.6 1.6 1.1 1.8q3.5 0 7 0c0.6-0.1 1.8-0.9 1.9-1.7 0.8-4.4 1.4-7.1 2-11.1 0.1-0.8-0.4-1.5-1.4-1.9q-3.3 0.1-6.6 0.1z"/>
			<path id="&lt;Compound Path&gt;" fill-rule="evenodd" class="s1" d="m390.8 132.3c0 0 1.4-3.8 6.1-4.7 1.6-0.4 3.5-0.2 5.3-0.2 3.5 0 6.5 0 6.5 0 0 0 1.7 0.2 3.1 1.3 1.2 0.9 2 2.7 1.8 4.6-0.2 1.5-0.7 3.9-0.9 5.2-0.4 2.7-0.6 3.9-0.8 4.3-0.3 0.6-2.6 4.7-6.8 4.9-4.3 0.2-11.8 0-11.8 0 0 0-4.5-1.4-4.3-5.1 0.3-3.6 1.8-10.3 1.8-10.3zm8.5-2c-1 0.2-1.8 0.9-2 1.7-0.9 4-1.2 7-2 11.1 0 1.2 0.7 1.6 1.1 1.8q3.5 0 7.1 0c0.6-0.1 1.7-0.9 1.9-1.7 0.7-4.4 1.4-7.1 1.9-11.1 0.1-0.8-0.4-1.6-1.3-1.9q-3.3 0-6.7 0.1z"/>
			<path id="&lt;Path&gt;" class="s1" d="m417.1 127.3c1.7 0 3.7 0 5.4 0.1 0.5 0.1 1 0.8 0.8 1.7-0.8 4.7-1.6 8.7-2.5 14.1 0 0.4 0.6 1.6 1.4 1.6 0.8 0 8.4 0.1 8.4 0.1l3.1-17.6h5c0 0 1.4 0.1 1.2 1.2-0.1 1.1-3.3 19.1-3.3 19.1l-17.1 0.1c0 0-1.2-0.1-2.5-0.8-1.1-0.7-2.6-2.8-2.5-3.7 0.4-3.3 2.6-15.9 2.6-15.9z"/>
			<path id="&lt;Path&gt;" class="s1" d="m364.9 127.4l-16.4-0.1c-3 0-7 2.4-7.6 5.3-0.9 4.7-1.7 9.7-1.6 11.1 0.2 1.4 2.5 3.9 5.2 4 2.7 0.1 11-0.1 12-0.2 0.9-0.2 4.8-2.1 5.5-4.6 0.8-2.6 1.3-7.4 1.3-7.4l-11.2-0.1c-0.3 0-0.5 0.9-0.5 1.5 0.1 0.3 0.1 0.9 0.6 1.1 0.5 0.3 1.8 0.2 4.4 0.2-1 3.3-0.3 5.1-2 6.3-1.2 0.8-3.2 0.5-7.7 0.4-1-0.4-1.5-1-1.3-2 0.7-3.8 1.7-11.1 2.3-11.9 0.5-0.5 1.4-1 2.2-1h13.5c0 0 1.1-0.5 1.3-2.6z"/>
			<path id="&lt;Compound Path&gt;" fill-rule="evenodd" class="s1" d="m367 127.3h16.6c0 0 2 0.2 3.6 1.8 1.8 1.9 1.3 5.1 0.1 6.9-1.6 2.6-4.3 3.1-4.3 3.2 0.1 0.7 3.4 8.3 3.6 8.3l-5.3 0.1c0 0-1-0.2-1.8-1.6-0.8-1.4-2.9-6.4-2.9-6.4h-5.3c-0.5 2.4-0.7 7.7-2.7 8-1.7 0.2-2.9 0-5.2 0.1zm6 2.7l-1.1 6.8c0 0 6.6 0.3 8-0.1 1.5-0.7 2.1-4.4 1.8-5.4-0.3-1.1-1.2-1.3-1.2-1.3z"/>
			<path id="&lt;Compound Path&gt;" fill-rule="evenodd" class="s1" d="m442.4 127.3h16.2c0 0 4.6 0.3 5.1 4.4 0 4.5-1.5 8-1.5 8 0 0-1.9 3.3-5.6 3.8-4.2 0.1-10.6 0.1-10.6 0.1l-0.7 4.1h-6.4zm6 2.7l-1.9 11c0 0 6.8 0 7.6-0.1 0.8 0 1.8-0.8 2.2-1.9 0.1-0.6 1-5.6 1.2-7.2 0.1-1.5-1.5-1.8-1.5-1.8z"/>
		</g>
	</g>
</svg>