<?xml version="1.0" standalone="no"?><!DOCTYPE svg PUBLIC "-//W3C//DTD SVG 1.1//EN" "http://www.w3.org/Graphics/SVG/1.1/DTD/svg11.dtd"><svg t="1755419566037" class="icon" viewBox="0 0 1024 1024" version="1.1" xmlns="http://www.w3.org/2000/svg" p-id="16613" xmlns:xlink="http://www.w3.org/1999/xlink" width="200" height="200"><path d="M834.08 235.31c33.39-62.01-4.77-143.13-4.77-143.13-85.86 0-147.9 57.24-147.9 57.24-33.39-19.08-143.13-19.08-143.13-19.08s-109.74 0-143.13 19.08c0 0-62.01-57.24-147.9-57.24 0 0-38.16 81.09-4.77 143.13 0 0-76.32 71.55-47.7 224.22 26.91 143.46 152.67 181.29 233.76 181.29 0 0-33.39 28.62-28.62 76.32 0 0-47.7 28.62-95.4 9.54s-71.55-66.78-71.55-66.78-47.7-62.01-95.4-38.16c0 0-14.31 14.31 38.16 38.16 0 0 38.16 57.24 52.47 90.63s90.63 62.01 166.98 42.93v109.71s0 9.54-19.08 14.31-19.08 14.31-9.54 14.31h343.5c9.54 0 9.54-9.54-9.54-14.31s-19.08-14.31-19.08-14.31V793.46s0.42-57.21 0-76.32c-1.05-47.94-33.39-76.32-33.39-76.32 81.09 0 206.85-37.83 233.76-181.29 28.62-152.67-47.7-224.22-47.7-224.22z" p-id="16614"></path></svg>