<?xml version="1.0" standalone="no"?><!DOCTYPE svg PUBLIC "-//W3C//DTD SVG 1.1//EN" "http://www.w3.org/Graphics/SVG/1.1/DTD/svg11.dtd"><svg t="1787998280425" class="icon" viewBox="0 0 1024 1024" version="1.1" xmlns="http://www.w3.org/2000/svg" p-id="42922" xmlns:xlink="http://www.w3.org/1999/xlink" width="200" height="200"><path d="M0 0h1024v1024H0z" fill-opacity="0" p-id="42923"></path><path d="M562 92v248c0 17.496 14.042 31.713 31.47 31.996l0.53 0.004h248v528c0 17.673-14.327 32-32 32H214c-17.673 0-32-14.327-32-32V124c0-17.673 14.327-32 32-32h348z m-7.6 542.8h-35.1v143.7c0 15.3-2.7 26.4-8.1 33.3-5.4 6.9-14.1 10.5-25.8 10.5-21.3 0-31.8-12.3-31.8-36.9v-6.6h-35.1v6.9c0 20.74 5.56 37.092 16.68 49.053l0.42 0.447c11.1 12 27.6 18 49.2 18 24.9 0 42.9-6.3 54.3-18.9 10.2-12 15.3-30 15.3-54.6V634.8z m117.6-4.2c-23.1 0-42 5.1-57 15.6-16.2 10.8-24 25.8-24 44.7 0 18.9 8.1 33.3 24.6 43.2l0.595 0.33 0.426 0.228 0.687 0.352 0.488 0.242 1.049 0.501 0.85 0.391 0.907 0.404 0.634 0.276 0.997 0.426 1.051 0.438 0.732 0.3 1.143 0.46 1.197 0.473 1.68 0.651 2.238 0.846 2.389 0.882 2.539 0.918 2.69 0.954 2.84 0.99 2.99 1.026 3.139 1.062 3.29 1.098 4.144 1.365 4.36 1.417 6.145 1.97 3.48 1.062 5.262 1.624 3.095 0.967 4.086 1.292 2.742 0.879 3.096 1.005 3.344 1.104 2.638 0.887 2.812 0.965 2.182 0.768 1.972 0.711 1.763 0.656 1.31 0.503 1.163 0.463 0.828 0.342 0.735 0.316 0.49 0.22 0.438 0.207 0.264 0.129c13.2 6.6 20.1 15.6 20.1 27 0 9-4.8 15.9-13.8 21.3-9 5.1-21.6 7.8-37.2 7.8-17.7 0-30.6-3.3-39-9.3-9.3-6.9-15-18.6-17.4-34.8h-34.8c1.5 27.3 11.4 47.1 29.4 59.7 14.7 10.2 35.4 15.3 61.8 15.3 27.3 0 48.6-5.7 63.6-16.5 15-11.1 22.5-26.4 22.5-45.6 0-19.8-9.3-35.1-27.9-46.2l-0.784-0.438-0.553-0.3-0.577-0.305-0.912-0.468-0.968-0.481-1.023-0.494-0.353-0.167-1.096-0.51-0.762-0.347-0.787-0.352-1.226-0.54-1.72-0.736-1.82-0.758-0.947-0.387-1.467-0.59-1.523-0.603-1.578-0.613-1.634-0.625-2.266-0.851-2.365-0.871-1.84-0.666-3.19-1.135-1.989-0.696-1.357-0.47-2.79-0.953-2.888-0.972-2.233-0.741-1.52-0.5-3.115-1.014-3.215-1.031-3.316-1.05-2.553-0.798-1.733-0.538-3.99-1.278-3.16-1.025-3.596-1.182-3.38-1.129-3.67-1.249-2.44-0.847-2.289-0.809-2.138-0.77-1.986-0.733-1.48-0.557-2.037-0.789-1.235-0.494-0.863-0.354-0.807-0.339-0.507-0.218-0.716-0.315-0.867-0.397-0.586-0.28-0.53-0.266-0.323-0.169c-10.2-5.4-15-12.9-15-21.9 0-10.2 4.2-17.7 13.2-22.2 7.2-3.9 17.4-5.7 30.9-5.7 15.6 0 27.6 2.7 35.4 8.7 7.8 5.7 13.5 15.3 16.5 28.5h34.8c-2.1-23.4-10.8-40.8-25.8-51.9-14.1-10.5-33.9-15.6-59.1-15.6zM762 469H326c-34.993 0-63.426 28.084-63.991 62.942L262 533h436c34.993 0 63.426-28.084 63.991-62.942L762 469zM496 320H326c-34.993 0-63.426 28.084-63.991 62.942L262 384h170c34.993 0 63.426-28.084 63.991-62.942L496 320zM626 92.51L841.491 308H626V92.51z" p-id="42924"></path></svg>