<?xml version="1.0" standalone="no"?><!DOCTYPE svg PUBLIC "-//W3C//DTD SVG 1.1//EN" "http://www.w3.org/Graphics/SVG/1.1/DTD/svg11.dtd"><svg t="1755440855195" class="icon" viewBox="0 0 1024 1024" version="1.1" xmlns="http://www.w3.org/2000/svg" p-id="8824" xmlns:xlink="http://www.w3.org/1999/xlink" width="200" height="200"><path d="M341.333333 443.733333h55.466667v145.066667H341.333333v-145.066667z m-68.266666 4.266667l-115.2 59.733333h-4.266667L38.4 448H29.866667c-8.533333 0-17.066667 4.266667-17.066667 12.8v132.266667h55.466667v-64c0-4.266667 4.266667-4.266667 4.266666-4.266667h4.266667l64 34.133333c8.533333 4.266667 12.8 4.266667 21.333333 0l68.266667-34.133333h8.533333v68.266667h55.466667v-132.266667c0-8.533333-8.533333-12.8-17.066667-12.8 0-4.266667-4.266667-4.266667-4.266666 0z m401.066666-4.266667h-55.466666V512c0 4.266667-4.266667 4.266667-4.266667 4.266667L469.333333 448h-8.533333c-8.533333 0-17.066667 4.266667-17.066667 12.8v132.266667h55.466667v-64c0-4.266667 4.266667-4.266667 4.266667-4.266667l149.333333 68.266667h8.533333c8.533333 0 17.066667-4.266667 17.066667-12.8v-136.533334z m46.933334 145.066667v-145.066667h25.6v145.066667h-25.6z m174.933333 4.266667c-68.266667 0-119.466667-29.866667-119.466667-76.8s51.2-76.8 119.466667-76.8c68.266667 0 119.466667 29.866667 119.466667 76.8s-46.933333 76.8-119.466667 76.8z m0-132.266667c-51.2 0-89.6 21.333333-89.6 55.466667 0 38.4 38.4 55.466667 89.6 55.466666s89.6-21.333333 89.6-55.466666c4.266667-34.133333-38.4-55.466667-89.6-55.466667z" p-id="8825"></path></svg>