<?xml version="1.0" standalone="no"?><!DOCTYPE svg PUBLIC "-//W3C//DTD SVG 1.1//EN" "http://www.w3.org/Graphics/SVG/1.1/DTD/svg11.dtd"><svg t="1755534453220" class="icon" viewBox="0 0 8230 1024" version="1.1" xmlns="http://www.w3.org/2000/svg" p-id="21449" xmlns:xlink="http://www.w3.org/1999/xlink" width="1607.421875" height="200"><path d="M173.217 204.492L30.1 1016.168h311.66l41.3-234.109h223.238c88.379 0 162.763-23.197 222.895-69.719 68.05-52.642 111.02-128.952 128.695-228.93 17.548-99.078-3.21-173.12-62.058-221.91-46.008-38.006-108.195-57.008-186.473-57.008H173.217zM407.754 593.66l35.523-200.726h67.279c46.48 0 80.29 5.393 101.69 16.264 28.46 14.68 39.075 41.386 32.27 80.076-7.276 41.771-28.376 70.789-63 87.01-24.438 11.684-59.49 17.376-105.199 17.376h-68.52zM1115.643 505.709l-269.246 510.459h195.333l50.802-110.42h165.202l14.252 110.42h205.391l-92.017-510.46h-269.717z m138.924 277.335h-113.502l87.524-167.9 25.978 167.9zM1633.464 505.709l-90.006 510.459h195.932l30.516-173.12h43.868c14.637 0 25.936 1.669 33.811 5.092 8.004 3.424 13.696 10.7 17.29 21.828 3.724 11.256 4.58 36.593 2.697 76.096-1.84 39.374-2.397 62.828-1.669 70.104h203.893c-1.156-4.836-2.91-43.141-5.307-114.786-1.242-29.232-4.837-51.83-10.7-67.921a104.942 104.942 0 0 0-29.232-35.523c-12.24-9.502-27.904-16.435-47.078-20.8 40.102-9.288 72.244-24.396 96.425-45.367 26.364-22.94 42.927-52.9 49.561-90.048 8.346-47.72-3.081-82.859-34.196-105.285-28.504-20.543-75.026-30.73-139.267-30.73h-316.496z m147.57 223.152l19.259-108.966h54.012c23.41 0 40.658 3.167 51.657 9.544 14.21 8.218 19.474 22.555 15.879 43.099-3.381 19.002-10.957 33.126-22.855 42.37-11.812 9.33-34.153 13.953-66.766 13.953h-51.23zM2388.303 505.709l-269.118 510.459h195.162l50.93-110.42h165.203l14.166 110.42h205.477l-92.017-510.46H2388.26z m138.967 277.335h-113.416l87.48-167.9 25.936 167.9zM4827.825 505.709l-269.118 510.459h195.162l50.93-110.42h165.203l14.166 110.42h205.477l-92.018-510.46h-269.845z m138.967 277.335h-113.416l87.48-167.9 25.936 167.9zM3424.458 505.709l-26.578 150.865h-172.65l-63.342 359.594h-195.803l63.342-359.594h-172.522l26.664-150.865h540.889zM3419.236 1016.168l89.963-510.46h442.238l-21.57 122.747H3679.11l-12.797 72.758h239.672l-21.57 122.789h-239.758l-12.326 69.42h256.021l-21.699 122.746h-447.417zM4057.492 505.709l-89.92 510.459h195.933l30.558-173.12h43.74c14.68 0 25.936 1.669 33.81 5.092 8.004 3.424 13.696 10.7 17.463 21.828 3.552 11.256 4.494 36.593 2.61 76.096-1.84 39.374-2.482 62.828-1.711 70.104h203.85c-1.07-4.836-2.868-43.141-5.265-114.786-1.155-29.232-4.708-51.83-10.657-67.921a103.744 103.744 0 0 0-29.317-35.523c-12.069-9.502-27.904-16.435-47.078-20.8 40.102-9.288 72.372-24.396 96.553-45.367 26.364-22.94 42.927-52.9 49.476-90.048 8.345-47.72-2.953-82.859-34.154-105.285-28.546-20.543-75.026-30.73-139.266-30.73h-316.582z m147.656 223.152l19.173-108.966h54.098c23.41 0 40.659 3.167 51.786 9.544 14.124 8.218 19.43 22.555 15.707 43.099-3.38 19.002-10.999 33.126-22.683 42.37-11.984 9.33-34.196 13.953-66.851 13.953h-51.273zM6597.077 162.55l37.663-71.047h-144.959l-16.05 26.792c-10.185 16.606-19.687 27.52-28.332 32.827-8.602 5.393-23.967 8.046-45.966 8.046h-162.035l-18.404 104.172h194.52c56.837 0 94.927-6.89 114.272-20.672 19.56-13.824 34.753-28.46 45.795-44.082 10.956-15.536 18.703-27.563 23.496-36.037zM5861.67 94.926h-144.446l12.84 68.136c2.44 13.61 5.392 26.45 8.945 38.433 3.595 12.07 13.396 25.337 29.317 39.931 16.006 14.552 51.786 21.913 107.596 21.913h179.583l18.36-104.172h-146.97c-22.812 0-37.32-2.61-43.869-7.832-6.505-5.179-11.727-16.178-15.579-33.04l-5.777-23.369z m727.063 219.515l-18.019 102.203h-72.244l-29.53 166.914h88.336l-18.061 102.289h-88.251l-53.84 305.668h-140.937l53.927-305.668h-440.997l-30.045 169.825c-4.28 24.395-9.844 47.078-16.82 68.178-7.062 21.057-18.831 36.721-35.523 46.993a155.659 155.659 0 0 1-54.61 20.672c-19.945 3.552-38.948 5.392-57.223 5.392h-127.454l18.104-102.759h81.018c21.356 0 34.923-2.825 40.744-8.474 5.863-5.692 10.914-20.415 14.98-44.083l27.39-155.787h-127.325l17.975-102.203h127.454l29.446-166.957h-127.54l18.232-102.203h920.855z m-260.558 269.16l29.317-166.957h-441.04l-29.531 166.914h441.254z m750.003-271.13h-101.433c31.671-14.251 62.7-44.938 92.959-92.016l84.484-130.964h-158.44l-48.79 72.073c-11.128 16.563-20.972 27.605-29.874 33.083-8.646 5.564-18.275 8.303-28.932 8.303h-87.31l-21.227 120.692h126.94l6.206-0.428-41.087 61.33c-13.652 19.73-23.624 31.672-30.173 35.78-6.59 4.066-16.177 6.078-28.889 6.078h-51.016l-21.313 120.135h85.64l-80.376 456.105h150.095l98.608-558.736 83.928-131.391z m90.819-207.316l-20.972 119.194H7730l20.971-119.194h-581.975z m-73.143 347.44h387.498l-64.882 368.068c-4.665 25.978-10.1 41.985-16.478 48.191-6.505 6.163-16.52 9.202-30.301 9.202h-233.766l-21.614 119.28 294.883-0.985c35.737 0 62.657-4.194 80.89-12.668 18.189-8.474 32.954-22.427 44.339-42.114 11.384-19.645 20.2-47.421 26.535-83.457l71.56-405.517h62.4l21.014-119.152H7116.91l-21.057 119.152z m1020.19-263.726h22.598l-23.539-36.806c-8.132-12.626-16.691-20.929-25.765-24.824 11.3-1.412 20.458-5.007 27.049-10.7 7.49-6.548 11.128-15.193 11.128-26.192a37.235 37.235 0 0 0-6.463-21.827 33.169 33.169 0 0 0-18.831-12.926 89.92 89.92 0 0 0-22.898-2.14h-60.046V188.87h17.933v-60.046h20.714a32.955 32.955 0 0 1 24.31 9.587c2.996 2.91 8.303 10.4 16.006 22.383l17.805 28.12z m-16.049-115.727a19.088 19.088 0 0 1 9.073 17.333c0 15.151-11.127 22.726-33.383 22.726h-38.518V68.478h42.798c8.26 0 14.937 1.54 20.03 4.708z" p-id="21450"></path><path d="M7944.72 127.626A127.797 127.797 0 0 0 8072.39 255.25a127.797 127.797 0 0 0 127.668-127.625A127.797 127.797 0 0 0 8072.39 0a127.797 127.797 0 0 0-127.668 127.626z m16.992 0A110.806 110.806 0 0 1 8072.389 16.99a110.848 110.848 0 0 1 110.677 110.635 110.763 110.763 0 0 1-110.677 110.591 110.763 110.763 0 0 1-110.677-110.591z" p-id="21451"></path></svg>