<?xml version="1.0" standalone="no"?><!DOCTYPE svg PUBLIC "-//W3C//DTD SVG 1.1//EN" "http://www.w3.org/Graphics/SVG/1.1/DTD/svg11.dtd"><svg fill="currentColor" t="1756033386872" viewBox="0 0 1024 1024" version="1.1" xmlns="http://www.w3.org/2000/svg" p-id="10218" xmlns:xlink="http://www.w3.org/1999/xlink"><path fill="currentColor" d="M501.589333 0c137.898667 0 249.742222 114.631111 249.742223 256S639.431111 512 501.589333 512c-137.955556 0-249.742222-114.631111-249.742222-256 0-141.425778 111.843556-256 249.742222-256z m0 0c137.898667 0 249.742222 114.631111 249.742223 256S639.431111 512 501.589333 512c-137.955556 0-249.742222-114.631111-249.742222-256 0-141.425778 111.843556-256 249.742222-256zM407.893333 597.333333h208.099556c178.176 0 322.616889 148.024889 322.616889 330.638223v21.333333C938.666667 1021.269333 794.168889 1024 616.106667 1024H407.893333C229.774222 1024 85.333333 1023.886222 85.333333 949.304889v-21.333333c0-182.613333 144.440889-330.638222 322.56-330.638223z" p-id="10219"></path></svg>